<svg viewBox="0 0 2216 1368" xmlns="http://www.w3.org/2000/svg"><g transform="translate(0.000000,1368.000000) scale(0.100000,-0.100000)" fill="#0EBAC0" stroke="none">
<path d="M9243 13185 c-26 -18 -39 -58 -48 -142 -3 -34 -19 -103 -35 -155 -16
-51 -34 -122 -39 -158 -6 -36 -24 -108 -40 -160 -17 -52 -35 -126 -41 -163 -6
-38 -24 -112 -41 -165 -17 -52 -35 -124 -40 -158 -5 -35 -22 -105 -38 -156
-16 -51 -37 -138 -46 -193 -9 -55 -29 -131 -44 -170 -16 -38 -31 -95 -34 -125
-3 -30 -20 -100 -37 -154 -18 -55 -36 -128 -41 -162 -5 -35 -23 -107 -40 -160
-17 -54 -35 -126 -40 -160 -5 -35 -23 -107 -40 -160 -17 -54 -35 -126 -40
-160 -5 -35 -22 -105 -38 -156 -17 -51 -35 -122 -40 -158 -6 -36 -27 -119 -46
-184 -19 -66 -35 -129 -35 -142 0 -12 -16 -78 -36 -146 -20 -67 -40 -148 -45
-179 -5 -31 -23 -101 -39 -154 -17 -54 -35 -126 -40 -160 -5 -34 -23 -106 -40
-160 -17 -54 -35 -126 -40 -160 -5 -34 -23 -106 -40 -160 -17 -54 -34 -125
-40 -159 -5 -34 -25 -113 -43 -176 -19 -63 -37 -139 -41 -169 -4 -30 -22 -99
-40 -155 -19 -56 -36 -124 -39 -152 -7 -59 -73 -292 -88 -311 -19 -22 -39 -15
-57 18 -21 39 -93 136 -186 251 -39 47 -92 112 -117 145 -192 246 -242 303
-282 322 -41 20 -56 20 -687 18 -608 -2 -647 -3 -672 -20 -15 -11 -29 -26 -32
-35 -3 -10 -6 -75 -8 -146 l-2 -129 28 -23 27 -24 570 0 570 0 22 -24 c12 -13
45 -51 72 -86 28 -34 77 -94 110 -132 33 -39 66 -80 74 -92 8 -11 29 -37 47
-56 17 -19 37 -46 44 -59 7 -13 40 -57 74 -98 33 -41 71 -87 83 -104 12 -17
38 -48 57 -70 20 -21 36 -43 36 -49 0 -5 19 -31 43 -58 23 -27 76 -91 117
-143 41 -51 87 -105 101 -119 15 -14 36 -44 48 -67 16 -32 30 -45 65 -58 57
-22 83 -10 91 43 13 79 46 221 70 302 14 47 30 117 36 157 5 39 23 107 39 151
16 43 34 115 40 160 6 44 21 107 34 139 13 32 32 105 41 163 10 57 26 124 37
149 10 25 32 109 48 187 16 78 35 158 44 177 8 20 22 75 31 123 9 47 27 121
40 163 13 42 31 114 40 161 10 47 27 119 40 160 13 41 31 113 40 160 9 47 27
119 40 160 13 41 31 113 40 160 9 47 27 119 40 160 13 41 31 113 40 160 9 47
27 119 40 160 13 41 31 113 40 160 9 47 27 119 40 160 13 41 31 114 39 161 9
47 27 117 40 155 13 39 29 104 36 145 7 41 25 115 40 164 16 50 34 119 40 155
6 36 22 104 35 151 14 47 32 130 40 184 21 127 35 156 63 122 6 -7 18 -66 26
-131 9 -66 25 -151 36 -190 11 -39 26 -118 35 -176 9 -58 29 -154 45 -215 15
-60 33 -147 39 -192 6 -45 24 -133 40 -195 16 -62 33 -140 36 -173 4 -33 20
-114 36 -180 17 -66 36 -161 44 -213 8 -51 25 -135 39 -185 13 -51 30 -128 36
-172 7 -44 25 -132 41 -197 16 -64 36 -160 44 -215 9 -54 29 -152 45 -218 16
-66 36 -163 44 -215 8 -52 27 -134 41 -183 14 -48 25 -96 25 -106 0 -25 -26
-45 -47 -37 -31 12 -1210 8 -1233 -4 -11 -6 -22 -21 -25 -33 -3 -12 -4 -1261
-3 -2775 l3 -2754 28 -24 28 -24 588 0 c393 0 598 4 619 11 21 7 34 21 42 42
8 23 10 744 9 2673 -1 2012 1 2646 10 2663 25 46 39 8 76 -210 14 -81 31 -165
39 -187 8 -23 18 -70 21 -104 9 -91 24 -163 50 -244 13 -39 30 -125 39 -190 8
-66 29 -166 46 -224 16 -58 30 -122 30 -142 0 -45 23 -157 45 -218 9 -25 25
-105 36 -177 11 -73 24 -145 29 -159 15 -38 47 -196 59 -285 6 -42 21 -112 35
-155 13 -43 26 -103 30 -133 7 -66 20 -83 60 -79 24 2 35 11 48 38 17 34 35
60 107 157 18 26 40 62 48 82 9 20 27 50 42 66 14 17 46 68 71 113 43 80 167
282 236 387 18 28 42 72 53 98 11 26 32 62 45 80 13 18 31 50 41 72 9 22 26
51 39 65 13 14 31 47 41 73 10 26 22 50 27 53 12 8 75 106 123 194 69 124 74
134 91 173 12 27 22 37 39 37 14 0 25 -7 28 -17 3 -13 10 -4176 7 -4506 0 -11
13 -24 35 -33 29 -12 131 -14 619 -14 408 0 592 3 609 11 14 6 30 22 36 36 8
17 11 326 11 1077 0 834 3 1056 13 1070 12 16 64 17 801 17 l788 0 30 29 30
30 -5 452 -4 452 -26 22 -27 23 -784 0 c-431 0 -791 3 -800 7 -23 9 -29 45
-16 93 6 24 9 55 5 69 -3 15 -6 296 -7 625 -1 461 1 600 11 610 9 9 247 12
1059 14 l1047 2 22 25 c21 25 21 28 21 466 0 438 0 441 -21 466 l-22 25 -1645
-1 c-1438 0 -1647 -2 -1667 -15 -25 -17 -77 -95 -119 -177 -15 -29 -37 -66
-50 -83 -12 -16 -34 -55 -48 -85 -14 -30 -40 -74 -56 -97 -17 -23 -53 -86 -81
-140 -28 -54 -59 -107 -69 -118 -10 -11 -25 -38 -35 -60 -9 -22 -24 -49 -35
-60 -10 -11 -28 -42 -40 -70 -12 -27 -32 -61 -44 -75 -13 -14 -30 -44 -39 -67
-9 -23 -40 -76 -68 -119 -60 -88 -118 -188 -165 -285 -18 -36 -40 -72 -49 -79
-10 -8 -28 -38 -40 -67 -34 -76 -74 -125 -99 -121 -19 3 -22 13 -33 118 -6 63
-27 176 -46 250 -19 74 -40 174 -45 221 -6 47 -20 108 -31 136 -11 28 -27 105
-36 170 -9 65 -30 170 -46 233 -17 63 -34 149 -40 190 -5 41 -24 136 -43 210
-19 74 -37 162 -40 194 -4 33 -22 120 -41 195 -18 75 -38 172 -44 215 -6 44
-22 120 -36 170 -14 50 -32 138 -40 196 -9 58 -27 146 -40 195 -14 50 -32 137
-40 195 -9 58 -27 143 -40 190 -14 47 -32 132 -40 190 -9 58 -27 146 -40 195
-14 50 -32 137 -40 195 -9 58 -27 146 -41 195 -13 50 -31 135 -39 189 -9 55
-29 151 -45 215 -16 64 -33 150 -39 191 -6 42 -24 127 -40 190 -16 64 -32 145
-36 180 -4 36 -17 99 -30 140 -13 41 -31 127 -41 190 -9 63 -29 165 -45 226
-16 61 -36 158 -44 215 -9 57 -27 145 -40 194 -14 50 -32 137 -40 195 -9 58
-29 155 -45 215 -16 61 -34 152 -40 203 -12 111 -32 165 -66 181 -31 14 -25
14 -51 -4z"/>
<path d="M490 8322 c-22 -18 -23 -26 -23 -143 1 -178 1 -177 23 -199 20 -20
33 -20 1715 -20 1800 0 1726 -2 1764 44 14 17 22 248 9 284 -19 54 62 52
-1772 52 -1628 0 -1695 -1 -1716 -18z"/>
<path d="M4864 8330 c-544 -5 -573 -6 -593 -24 l-21 -19 0 -2758 0 -2758 24
-28 24 -28 1524 -3 c1085 -2 1534 0 1561 8 26 8 41 19 47 36 15 37 13 956 -1
987 -24 53 3 52 -944 54 l-880 2 -18 22 c-16 20 -17 136 -17 2239 0 1219 -2
2224 -6 2233 -7 18 -45 34 -94 39 -19 2 -292 1 -606 -2z"/>
<path d="M18533 8330 c-2799 -5 -3054 -6 -3069 -21 -18 -19 -19 -29 -16 -187
2 -111 3 -114 31 -143 l29 -29 525 0 c515 0 525 0 551 -21 l26 -20 0 -2580 c0
-2566 0 -2579 20 -2599 20 -20 33 -20 614 -20 413 0 603 3 625 11 19 7 36 22
42 36 5 15 9 1032 9 2581 0 2042 3 2562 13 2582 l13 25 1843 2 c1014 2 1852 5
1861 8 32 10 42 58 43 205 1 159 -2 167 -68 172 -22 2 -1413 1 -3092 -2z"/>
</g>
<g transform="translate(0.000000,1368.000000) scale(0.100000,-0.100000)" fill="var(--slate)" stroke="none">
<path d="M9245 13241 c-12 -5 -27 -17 -35 -27 -13 -17 -12 -17 8 1 26 21 93
26 100 7 2 -7 9 -12 15 -12 20 0 -16 28 -43 34 -14 3 -34 1 -45 -3z"/>
<path d="M9102 12755 c0 -16 2 -22 5 -12 2 9 2 23 0 30 -3 6 -5 -1 -5 -18z"/>
<path d="M9022 12435 c0 -16 2 -22 5 -12 2 9 2 23 0 30 -3 6 -5 -1 -5 -18z"/>
<path d="M8942 12115 c0 -16 2 -22 5 -12 2 9 2 23 0 30 -3 6 -5 -1 -5 -18z"/>
<path d="M8702 11155 c0 -16 2 -22 5 -12 2 9 2 23 0 30 -3 6 -5 -1 -5 -18z"/>
<path d="M8622 10835 c0 -16 2 -22 5 -12 2 9 2 23 0 30 -3 6 -5 -1 -5 -18z"/>
<path d="M8542 10515 c0 -16 2 -22 5 -12 2 9 2 23 0 30 -3 6 -5 -1 -5 -18z"/>
<path d="M9582 9795 c0 -16 2 -22 5 -12 2 9 2 23 0 30 -3 6 -5 -1 -5 -18z"/>
<path d="M10092 9555 c0 -16 2 -22 5 -12 2 9 2 23 0 30 -3 6 -5 -1 -5 -18z"/>
<path d="M6223 8373 c147 -2 387 -2 535 0 147 1 26 2 -268 2 -294 0 -415 -1
-267 -2z"/>
<path d="M7043 8373 c9 -2 23 -2 30 0 6 3 -1 5 -18 5 -16 0 -22 -2 -12 -5z"/>
<path d="M5353 8343 c9 -2 25 -2 35 0 9 3 1 5 -18 5 -19 0 -27 -2 -17 -5z"/>
<path d="M11893 8343 c9 -2 25 -2 35 0 9 3 1 5 -18 5 -19 0 -27 -2 -17 -5z"/>
<path d="M14873 8343 c9 -2 25 -2 35 0 9 3 1 5 -18 5 -19 0 -27 -2 -17 -5z"/>
<path d="M21513 8343 c9 -2 25 -2 35 0 9 3 1 5 -18 5 -19 0 -27 -2 -17 -5z"/>
<path d="M8572 8240 c0 -19 2 -27 5 -17 2 9 2 25 0 35 -3 9 -5 1 -5 -18z"/>
<path d="M15422 8245 c0 -16 2 -22 5 -12 2 9 2 23 0 30 -3 6 -5 -1 -5 -18z"/>
<path d="M4003 8160 c0 -30 2 -43 4 -27 2 15 2 39 0 55 -2 15 -4 2 -4 -28z"/>
<path d="M15095 7840 c0 -206 1 -291 2 -187 2 103 2 271 0 375 -1 103 -2 18
-2 -188z"/>
<path d="M452 8160 c0 -19 2 -27 5 -17 2 9 2 25 0 35 -3 9 -5 1 -5 -18z"/>
<path d="M21702 8160 c0 -19 2 -27 5 -17 2 9 2 25 0 35 -3 9 -5 1 -5 -18z"/>
<path d="M5595 6000 c0 -1092 1 -1538 2 -992 2 545 2 1439 0 1985 -1 545 -2
99 -2 -993z"/>
<path d="M573 7933 c9 -2 23 -2 30 0 6 3 -1 5 -18 5 -16 0 -22 -2 -12 -5z"/>
<path d="M1453 7933 c450 -2 1184 -2 1630 0 447 1 79 2 -818 2 -896 0 -1262
-1 -812 -2z"/>
<path d="M15728 7923 c122 -2 322 -2 445 0 122 1 22 2 -223 2 -245 0 -345 -1
-222 -2z"/>
<path d="M16458 7923 c18 -2 45 -2 60 0 15 2 0 4 -33 4 -33 0 -45 -2 -27 -4z"/>
<path d="M18968 7923 c481 -2 1264 -2 1740 0 477 1 84 2 -873 2 -957 0 -1347
-1 -867 -2z"/>
<path d="M7787 7618 c2 -5 10 -8 18 -8 8 0 16 3 18 8 3 4 -5 7 -18 7 -13 0
-21 -3 -18 -7z"/>
<path d="M9935 5075 c0 -1270 1 -1792 2 -1158 2 633 2 1673 0 2310 -1 637 -2
119 -2 -1152z"/>
<path d="M14873 7333 c9 -2 25 -2 35 0 9 3 1 5 -18 5 -19 0 -27 -2 -17 -5z"/>
<path d="M11592 7200 c0 -19 2 -27 5 -17 2 9 2 25 0 35 -3 9 -5 1 -5 -18z"/>
<path d="M12943 7190 c0 -25 2 -35 4 -22 2 12 2 32 0 45 -2 12 -4 2 -4 -23z"/>
<path d="M11583 7035 c0 -33 2 -45 4 -27 2 18 2 45 0 60 -2 15 -4 0 -4 -33z"/>
<path d="M12943 7040 c0 -30 2 -43 4 -27 2 15 2 39 0 55 -2 15 -4 2 -4 -28z"/>
<path d="M12942 6905 c0 -16 2 -22 5 -12 2 9 2 23 0 30 -3 6 -5 -1 -5 -18z"/>
<path d="M11582 6860 c0 -19 2 -27 5 -17 2 9 2 25 0 35 -3 9 -5 1 -5 -18z"/>
<path d="M10809 6813 l-24 -28 28 24 c15 14 27 26 27 28 0 8 -8 1 -31 -24z"/>
<path d="M12934 6680 c0 -91 2 -128 3 -82 2 45 2 119 0 165 -1 45 -3 8 -3 -83z"/>
<path d="M10662 6765 c0 -16 2 -22 5 -12 2 9 2 23 0 30 -3 6 -5 -1 -5 -18z"/>
<path d="M11584 6680 c0 -63 1 -89 3 -57 2 31 2 83 0 115 -2 31 -3 5 -3 -58z"/>
<path d="M8065 6741 c-6 -5 -23 -11 -40 -14 l-30 -4 31 -2 c18 0 37 6 44 14
14 16 10 21 -5 6z"/>
<path d="M11583 6495 c0 -22 2 -30 4 -17 2 12 2 30 0 40 -3 9 -5 -1 -4 -23z"/>
<path d="M12942 6455 c0 -16 2 -22 5 -12 2 9 2 23 0 30 -3 6 -5 -1 -5 -18z"/>
<path d="M11583 6200 c0 -36 2 -50 4 -32 2 17 2 47 0 65 -2 17 -4 3 -4 -33z"/>
<path d="M11583 5985 c0 -22 2 -30 4 -17 2 12 2 30 0 40 -3 9 -5 -1 -4 -23z"/>
<path d="M11582 5860 c0 -19 2 -27 5 -17 2 9 2 25 0 35 -3 9 -5 1 -5 -18z"/>
<path d="M11582 5740 c0 -19 2 -27 5 -17 2 9 2 25 0 35 -3 9 -5 1 -5 -18z"/>
<path d="M14582 5690 c0 -19 2 -27 5 -17 2 9 2 25 0 35 -3 9 -5 1 -5 -18z"/>
<path d="M11583 5635 c0 -22 2 -30 4 -17 2 12 2 30 0 40 -3 9 -5 -1 -4 -23z"/>
<path d="M14582 5595 c0 -16 2 -22 5 -12 2 9 2 23 0 30 -3 6 -5 -1 -5 -18z"/>
<path d="M11583 5540 c0 -25 2 -35 4 -22 2 12 2 32 0 45 -2 12 -4 2 -4 -23z"/>
<path d="M11583 4920 c0 -36 2 -50 4 -32 2 17 2 47 0 65 -2 17 -4 3 -4 -33z"/>
<path d="M13013 4903 c15 -2 37 -2 50 0 12 2 0 4 -28 4 -27 0 -38 -2 -22 -4z"/>
<path d="M13463 4903 c180 -2 474 -2 655 0 180 1 32 2 -328 2 -360 0 -508 -1
-327 -2z"/>
<path d="M12943 4785 c0 -22 2 -30 4 -17 2 12 2 30 0 40 -3 9 -5 -1 -4 -23z"/>
<path d="M12945 3810 c0 -498 1 -701 2 -453 2 249 2 657 0 905 -1 249 -2 46
-2 -452z"/>
<path d="M5593 3915 c0 -27 2 -38 4 -22 2 15 2 37 0 50 -2 12 -4 0 -4 -28z"/>
<path d="M5658 3813 c12 -2 32 -2 45 0 12 2 2 4 -23 4 -25 0 -35 -2 -22 -4z"/>
<path d="M6142 3813 c201 -2 534 -2 740 0 205 1 40 2 -367 2 -407 0 -575 -1
-373 -2z"/>
<path d="M7323 3813 c9 -2 25 -2 35 0 9 3 1 5 -18 5 -19 0 -27 -2 -17 -5z"/>
<path d="M7455 3240 c0 -228 1 -322 2 -208 2 115 2 301 0 415 -1 115 -2 21 -2
-207z"/>
<path d="M16593 2875 c0 -22 2 -30 4 -17 2 12 2 30 0 40 -3 9 -5 -1 -4 -23z"/>
<path d="M12942 2825 c0 -16 2 -22 5 -12 2 9 2 23 0 30 -3 6 -5 -1 -5 -18z"/>
<path d="M11582 2790 c0 -19 2 -27 5 -17 2 9 2 25 0 35 -3 9 -5 1 -5 -18z"/>
<path d="M4383 2693 c9 -2 23 -2 30 0 6 3 -1 5 -18 5 -16 0 -22 -2 -12 -5z"/>
<path d="M12788 2693 c12 -2 30 -2 40 0 9 3 -1 5 -23 4 -22 0 -30 -2 -17 -4z"/>
<path d="M16698 2693 c12 -2 30 -2 40 0 9 3 -1 5 -23 4 -22 0 -30 -2 -17 -4z"/>
<path d="M4203 1842 c-53 -8 -53 -4 -53 -572 0 -289 4 -531 8 -538 21 -33 138
-33 158 0 4 6 7 112 8 237 1 168 5 234 15 256 l13 30 15 -34 c8 -19 21 -89 29
-155 34 -290 37 -310 61 -333 16 -17 34 -23 68 -23 61 0 91 29 100 96 38 276
59 361 88 351 20 -6 25 -48 26 -229 1 -164 3 -180 21 -198 28 -28 127 -28 162
0 l25 19 -3 516 c-2 317 -7 522 -13 534 -17 32 -64 43 -160 40 -66 -3 -95 -8
-106 -20 -10 -10 -25 -69 -40 -155 -28 -162 -55 -262 -80 -300 -15 -23 -19
-25 -26 -12 -10 17 -22 105 -39 267 -11 113 -35 181 -72 204 -22 14 -153 26
-205 19z"/>
<path d="M7072 1840 c-12 -5 -27 -21 -32 -35 -6 -16 -10 -227 -10 -540 0 -474
1 -514 18 -534 26 -31 134 -34 172 -3 l21 17 -1 514 c0 425 -3 518 -15 541
-22 43 -97 62 -153 40z"/>
<path d="M7754 1831 c-36 -22 -78 -74 -89 -111 -4 -14 -21 -43 -37 -65 -38
-54 -56 -178 -57 -385 0 -127 18 -331 33 -359 45 -88 105 -175 134 -193 77
-48 288 -31 328 25 8 12 26 38 39 57 13 19 31 45 40 56 23 32 49 207 35 234
-14 27 -49 40 -106 40 -62 0 -84 -24 -84 -94 0 -73 -31 -120 -83 -124 -34 -3
-39 0 -67 45 -44 69 -49 97 -52 313 -2 185 -1 198 21 246 12 29 35 64 51 79
24 23 34 26 64 21 48 -9 66 -38 66 -106 0 -68 25 -121 61 -131 42 -11 92 12
113 51 17 32 18 48 11 163 -7 126 -8 128 -41 170 -79 96 -56 87 -211 87 -118
0 -142 -3 -169 -19z"/>
<path d="M11602 1837 c-19 -7 -61 -34 -93 -62 -44 -37 -62 -60 -70 -90 -6 -22
-22 -71 -36 -110 -30 -85 -46 -264 -41 -445 4 -121 5 -128 44 -210 47 -100
107 -196 132 -208 9 -5 36 -12 60 -15 54 -7 69 -19 83 -71 15 -56 67 -136 96
-147 33 -12 97 -11 127 2 30 14 56 65 56 109 0 31 -15 50 -84 107 -35 29 -34
74 4 149 16 32 37 88 46 124 9 36 28 88 43 115 26 49 26 52 24 246 -1 159 -5
203 -18 235 -10 21 -27 64 -40 94 -27 69 -107 176 -137 184 -38 10 -161 6
-196 -7z m127 -246 c28 -28 33 -93 29 -371 -3 -215 -5 -249 -21 -273 -39 -60
-82 -23 -101 89 -39 220 -45 499 -12 549 21 31 76 35 105 6z"/>
<path d="M12374 1843 c-54 -10 -54 -4 -55 -474 -1 -318 1 -445 10 -474 20 -63
91 -157 136 -180 46 -23 175 -32 217 -16 17 6 36 28 52 59 13 26 31 54 40 61
8 7 25 38 36 68 11 30 31 69 44 86 45 59 47 89 44 475 -3 413 1 392 -88 392
-35 0 -52 -5 -66 -21 -18 -20 -19 -46 -24 -418 -5 -370 -6 -399 -25 -436 -40
-80 -91 -52 -135 75 l-30 85 -1 315 c-1 173 -4 326 -8 339 -12 45 -85 76 -147
64z"/>
<path d="M13293 1826 l-28 -24 -3 -514 c-2 -282 0 -523 3 -536 12 -50 131 -66
177 -25 17 15 18 50 18 528 0 332 -4 523 -10 542 -20 56 -107 72 -157 29z"/>
<path d="M13883 1843 c-53 -11 -53 -6 -53 -569 0 -287 3 -529 6 -538 9 -24 75
-38 125 -27 75 17 75 15 69 240 -3 121 -1 135 15 148 11 7 32 13 47 13 16 0
43 6 61 14 33 14 167 146 167 164 0 6 18 32 40 57 l40 46 0 102 c0 100 -1 104
-42 185 -37 75 -48 88 -102 123 l-60 39 -125 0 c-70 0 -135 2 -146 4 -11 2
-30 2 -42 -1z m252 -247 c28 -28 39 -77 33 -152 -5 -60 -36 -104 -72 -104 -49
1 -66 37 -66 140 0 101 17 139 63 140 10 0 29 -11 42 -24z"/>
<path d="M14806 1840 c-125 -8 -116 40 -117 -575 l0 -520 21 -17 c29 -24 101
-24 129 0 19 16 21 30 26 206 3 105 9 194 14 199 25 25 60 -96 81 -278 5 -50
10 -93 10 -97 0 -5 9 -17 20 -28 26 -26 109 -28 138 -2 23 19 41 103 71 335
26 200 47 243 70 150 8 -30 11 -120 10 -255 -3 -247 -3 -248 91 -248 40 0 64
5 80 18 l21 17 0 520 c-1 619 10 567 -127 576 -49 4 -99 3 -111 -2 -32 -12
-48 -50 -73 -169 -12 -58 -24 -108 -26 -111 -2 -4 -8 -51 -14 -105 -24 -223
-58 -220 -86 5 -16 128 -38 255 -56 313 -20 67 -45 77 -172 68z"/>
<path d="M17103 1843 c-13 -2 -32 -16 -43 -31 -20 -24 -20 -34 -14 -172 8
-165 -5 -254 -35 -248 -17 3 -29 37 -81 238 -36 135 -60 194 -85 204 -9 3 -50
6 -90 6 -68 0 -75 -2 -94 -26 -21 -26 -21 -36 -21 -550 l0 -523 22 -15 c33
-23 110 -21 133 4 16 18 17 39 13 272 -3 139 -1 268 4 286 18 65 48 30 68 -78
25 -135 130 -459 156 -481 44 -36 158 -27 173 14 4 12 7 252 6 532 -1 387 -4
516 -14 533 -11 21 -51 44 -69 41 -4 -1 -17 -4 -29 -6z"/>
<path d="M17724 1840 c-248 -6 -244 -4 -244 -121 0 -71 2 -79 25 -97 14 -11
45 -23 69 -26 24 -4 50 -13 56 -21 9 -10 12 -126 13 -421 l2 -407 26 -19 c34
-26 132 -27 160 -2 18 16 19 36 19 426 0 263 4 416 10 429 9 15 22 19 65 19
72 0 85 18 85 121 0 85 -14 114 -60 121 -14 2 -116 1 -226 -2z"/>
<path d="M5315 1816 l-25 -25 0 -520 c0 -563 -2 -543 54 -557 12 -3 120 -4
240 -2 215 3 218 3 237 27 35 44 17 147 -33 184 -24 18 -44 21 -134 21 -99 1
-107 3 -125 25 -15 18 -19 39 -19 95 0 105 8 113 120 118 115 4 135 20 134
105 0 48 -4 59 -28 79 -23 21 -38 24 -105 24 -98 0 -111 11 -118 104 -5 60 -4
66 22 91 25 26 31 27 88 21 34 -3 87 -2 116 3 75 12 91 33 91 121 0 106 4 104
-266 108 l-224 3 -25 -25z"/>
<path d="M6143 1816 l-28 -24 -3 -520 -3 -520 27 -21 c24 -19 40 -21 141 -21
74 0 125 5 147 14 32 13 193 132 213 158 6 7 27 62 48 122 l37 108 -4 202 c-3
185 -5 204 -26 243 -12 23 -31 67 -42 97 -23 59 -58 95 -150 152 l-54 34 -138
0 c-130 0 -138 -1 -165 -24z m284 -303 l48 -88 0 -150 0 -150 -48 -92 c-35
-69 -52 -93 -67 -93 -10 0 -22 5 -26 11 -9 15 -9 622 0 637 19 32 45 10 93
-75z"/>
<path d="M8683 1830 c-31 -12 -41 -38 -54 -125 -6 -42 -23 -119 -39 -170 -16
-51 -34 -128 -40 -171 -6 -43 -23 -126 -39 -184 -16 -58 -36 -151 -45 -208 -8
-56 -25 -120 -36 -142 -11 -21 -20 -48 -20 -59 0 -57 131 -85 185 -38 21 18
28 36 36 97 14 105 26 115 135 112 73 -3 84 -15 100 -113 17 -106 30 -119 121
-119 55 0 67 4 88 25 30 29 30 37 5 94 -11 24 -27 90 -35 146 -8 56 -26 141
-40 191 -14 49 -32 137 -41 196 -8 58 -24 133 -35 165 -11 32 -27 103 -35 157
-17 113 -25 133 -60 146 -31 12 -121 12 -151 0z m91 -455 c4 -14 11 -60 16
-102 8 -63 7 -81 -5 -100 -18 -27 -56 -30 -79 -7 -19 18 -19 15 -6 90 21 121
59 181 74 119z"/>
<path d="M9382 1815 c-22 -28 -22 -30 -22 -544 0 -431 2 -520 14 -537 13 -18
30 -19 224 -22 l210 -3 22 28 c20 25 21 35 16 92 -11 108 -29 123 -146 125
-129 2 -120 -33 -120 436 0 470 7 442 -107 448 -66 4 -71 3 -91 -23z"/>
<path d="M10595 1816 l-25 -25 0 -518 c0 -285 4 -523 8 -529 19 -29 55 -34
266 -34 143 0 224 4 241 12 31 14 39 42 33 109 -9 90 -72 125 -208 113 -93 -8
-103 2 -111 108 -10 119 -4 125 110 129 116 5 136 21 135 106 0 48 -4 59 -28
79 -23 21 -38 24 -105 24 -100 0 -110 10 -114 109 -2 67 0 74 23 93 21 17 34
19 86 14 75 -8 163 8 189 34 31 31 29 141 -3 172 -22 22 -29 23 -247 26 l-225
3 -25 -25z"/>
<path d="M15854 1819 c-18 -20 -19 -46 -22 -545 -2 -514 -2 -524 18 -544 19
-19 32 -20 239 -20 206 0 220 1 245 21 22 17 26 28 26 70 0 62 -31 126 -68
140 -16 6 -56 8 -98 4 -87 -9 -142 6 -148 38 -3 12 -7 52 -9 89 -7 96 -1 102
118 108 91 5 99 8 121 33 26 31 31 80 13 120 -18 40 -59 57 -141 57 -93 0
-105 11 -109 95 -2 33 1 70 5 82 10 30 61 42 167 40 73 -2 90 1 108 17 48 44
51 146 6 192 -24 24 -26 24 -238 24 -205 0 -215 -1 -233 -21z"/>
</g></svg>
