<svg xmlns="http://www.w3.org/2000/svg" viewBox="54.25 14.25 100.25 58.0" width="401" height="232">
<path fill-rule="nonzero" fill="rgb(5.882263%, 73.725891%, 75.294495%)" fill-opacity="1" d="M 109.410156 38.566406 C 108.785156 39.621094 107.742188 41.476562 106.640625 43.441406 C 105.179688 46.050781 103.664062 48.75 102.824219 50.121094 L 101.691406 51.960938 L 95.765625 22.351562 L 89.992188 46.320312 L 85.25 40.15625 L 79.617188 40.15625 L 79.617188 38.457031 L 86.085938 38.457031 L 89.171875 42.472656 L 95.917969 14.476562 L 102.496094 47.332031 C 103.277344 45.972656 104.230469 44.273438 105.164062 42.613281 C 106.03125 41.058594 106.8125 39.652344 107.4375 38.566406 "/>
<path fill-rule="nonzero" fill="rgb(5.882263%, 73.725891%, 75.294495%)" fill-opacity="1" d="M 70.941406 40.234375 L 54.605469 40.234375 L 54.605469 38.535156 L 70.941406 38.535156 Z M 70.941406 40.234375 "/>
<path fill-rule="nonzero" fill="rgb(5.882263%, 73.725891%, 75.294495%)" fill-opacity="1" d="M 72.4375 38.566406 L 78.402344 38.566406 L 78.402344 60.617188 L 87.152344 60.617188 L 87.152344 65.707031 L 72.4375 65.707031 Z M 72.4375 38.566406 "/>
<path fill-rule="nonzero" fill="rgb(5.882263%, 73.725891%, 75.294495%)" fill-opacity="1" d="M 92.832031 38.566406 L 98.796875 38.566406 L 98.796875 65.707031 L 92.832031 65.707031 Z M 92.832031 38.566406 "/>
<path fill-rule="nonzero" fill="rgb(5.882263%, 73.725891%, 75.294495%)" fill-opacity="1" d="M 109.28125 38.566406 L 123.085938 38.566406 L 123.085938 43.21875 L 112.945312 43.21875 L 112.945312 50.316406 L 120.757812 50.316406 L 120.757812 54.96875 L 112.945312 54.96875 L 112.945312 65.707031 L 106.980469 65.707031 L 106.980469 41.027344 "/>
<path fill-rule="nonzero" fill="rgb(5.882263%, 73.725891%, 75.294495%)" fill-opacity="1" d="M 125.027344 38.566406 L 154.175781 38.566406 L 154.175781 40.246094 L 136.402344 40.246094 L 136.402344 65.707031 L 130.4375 65.707031 L 130.4375 40.246094 L 125.027344 40.246094 Z M 125.027344 38.566406 "/>
<path fill-rule="nonzero" fill="rgb(62.353516%, 66.275024%, 73.33374%)" fill-opacity="1" d="M 72.257812 67.640625 L 73.476562 67.640625 L 74.007812 69.96875 L 74.605469 67.640625 L 75.785156 67.640625 L 75.785156 71.410156 L 75.011719 71.410156 L 75.011719 68.253906 L 74.238281 71.410156 L 73.636719 71.410156 L 72.933594 68.253906 L 72.933594 71.410156 L 72.257812 71.410156 Z M 72.257812 67.640625 "/>
<path fill-rule="nonzero" fill="rgb(62.353516%, 66.275024%, 73.33374%)" fill-opacity="1" d="M 77.566406 67.640625 L 79.859375 67.640625 L 79.859375 68.289062 L 78.394531 68.289062 L 78.394531 69.164062 L 79.535156 69.164062 L 79.535156 69.808594 L 78.394531 69.808594 L 78.394531 70.738281 L 79.859375 70.738281 L 79.859375 71.410156 L 77.566406 71.410156 Z M 77.566406 67.640625 "/>
<path fill-rule="nonzero" fill="rgb(62.353516%, 66.275024%, 73.33374%)" fill-opacity="1" d="M 82.164062 68.289062 L 82.164062 70.765625 L 82.304688 70.765625 C 82.496094 70.765625 82.644531 70.726562 82.75 70.65625 C 82.855469 70.582031 82.941406 70.453125 83.003906 70.269531 C 83.066406 70.085938 83.097656 69.820312 83.097656 69.472656 C 83.097656 69.152344 83.0625 68.90625 82.992188 68.734375 C 82.921875 68.558594 82.835938 68.441406 82.730469 68.382812 C 82.628906 68.320312 82.484375 68.289062 82.304688 68.289062 Z M 81.335938 67.640625 L 82.226562 67.640625 C 82.613281 67.640625 82.925781 67.695312 83.167969 67.796875 C 83.410156 67.902344 83.605469 68.09375 83.75 68.375 C 83.894531 68.652344 83.96875 69.03125 83.96875 69.507812 C 83.96875 69.847656 83.925781 70.148438 83.835938 70.410156 C 83.75 70.671875 83.632812 70.878906 83.488281 71.03125 C 83.34375 71.183594 83.183594 71.28125 83.003906 71.335938 C 82.824219 71.386719 82.597656 71.410156 82.324219 71.410156 L 81.335938 71.410156 Z M 81.335938 67.640625 "/>
<path fill-rule="nonzero" fill="rgb(62.353516%, 66.275024%, 73.33374%)" fill-opacity="1" d="M 85.582031 67.640625 L 86.410156 67.640625 L 86.410156 71.410156 L 85.582031 71.410156 Z M 85.582031 67.640625 "/>
<path fill-rule="nonzero" fill="rgb(62.353516%, 66.275024%, 73.33374%)" fill-opacity="1" d="M 90.027344 70.039062 L 90.789062 70.085938 C 90.761719 70.496094 90.632812 70.828125 90.402344 71.085938 C 90.167969 71.339844 89.863281 71.46875 89.480469 71.46875 C 89.019531 71.46875 88.664062 71.296875 88.421875 70.953125 C 88.179688 70.609375 88.058594 70.136719 88.058594 69.53125 C 88.058594 68.921875 88.175781 68.445312 88.417969 68.101562 C 88.660156 67.757812 89.019531 67.585938 89.492188 67.585938 C 90.277344 67.585938 90.707031 68.070312 90.777344 69.042969 L 90.019531 69.097656 C 90 68.539062 89.824219 68.257812 89.496094 68.257812 C 89.320312 68.257812 89.183594 68.347656 89.082031 68.527344 C 88.980469 68.707031 88.929688 69.058594 88.929688 69.578125 C 88.929688 70.042969 88.976562 70.359375 89.070312 70.535156 C 89.164062 70.710938 89.304688 70.796875 89.492188 70.796875 C 89.792969 70.796875 89.972656 70.542969 90.027344 70.039062 "/>
<path fill-rule="nonzero" fill="rgb(62.353516%, 66.275024%, 73.33374%)" fill-opacity="1" d="M 93.777344 69.988281 L 93.394531 68.441406 L 93.027344 69.988281 Z M 93.054688 67.644531 L 93.890625 67.644531 L 94.964844 71.410156 L 94.121094 71.410156 L 93.929688 70.632812 L 92.871094 70.632812 L 92.683594 71.410156 L 91.921875 71.410156 Z M 93.054688 67.644531 "/>
<path fill-rule="nonzero" fill="rgb(62.353516%, 66.275024%, 73.33374%)" fill-opacity="1" d="M 96.351562 67.640625 L 97.179688 67.640625 L 97.179688 70.703125 L 98.394531 70.703125 L 98.394531 71.410156 L 96.351562 71.410156 Z M 96.351562 67.640625 "/>
<path fill-rule="nonzero" fill="rgb(62.353516%, 66.275024%, 73.33374%)" fill-opacity="1" d="M 101.949219 67.640625 L 104.242188 67.640625 L 104.242188 68.289062 L 102.777344 68.289062 L 102.777344 69.164062 L 103.917969 69.164062 L 103.917969 69.808594 L 102.777344 69.808594 L 102.777344 70.738281 L 104.242188 70.738281 L 104.242188 71.410156 L 101.949219 71.410156 Z M 101.949219 67.640625 "/>
<path fill-rule="nonzero" fill="rgb(62.353516%, 66.275024%, 73.33374%)" fill-opacity="1" d="M 107.445312 69.527344 C 107.445312 69.015625 107.40625 68.679688 107.328125 68.511719 C 107.25 68.34375 107.125 68.257812 106.949219 68.257812 C 106.777344 68.257812 106.652344 68.34375 106.574219 68.511719 C 106.496094 68.679688 106.453125 69.019531 106.453125 69.527344 C 106.453125 70.023438 106.496094 70.359375 106.574219 70.535156 C 106.652344 70.710938 106.777344 70.796875 106.949219 70.796875 C 107.121094 70.796875 107.246094 70.710938 107.328125 70.542969 C 107.40625 70.378906 107.445312 70.039062 107.445312 69.527344 M 108.179688 71.542969 L 108.179688 72.140625 C 108.0625 72.175781 107.945312 72.191406 107.828125 72.191406 C 107.355469 72.191406 107.105469 71.949219 107.078125 71.464844 C 107.007812 71.46875 106.957031 71.46875 106.917969 71.46875 C 106.511719 71.46875 106.1875 71.3125 105.945312 71 C 105.703125 70.6875 105.582031 70.199219 105.582031 69.527344 C 105.582031 68.230469 106.039062 67.582031 106.949219 67.582031 C 107.402344 67.582031 107.742188 67.746094 107.972656 68.074219 C 108.203125 68.402344 108.320312 68.875 108.320312 69.492188 C 108.320312 69.9375 108.269531 70.308594 108.167969 70.605469 C 108.0625 70.90625 107.886719 71.136719 107.628906 71.304688 C 107.632812 71.414062 107.652344 71.488281 107.699219 71.527344 C 107.742188 71.566406 107.808594 71.585938 107.898438 71.585938 C 107.984375 71.585938 108.078125 71.570312 108.179688 71.542969 "/>
<path fill-rule="nonzero" fill="rgb(62.353516%, 66.275024%, 73.33374%)" fill-opacity="1" d="M 109.964844 67.640625 L 110.792969 67.640625 L 110.792969 69.796875 C 110.792969 70.101562 110.808594 70.3125 110.835938 70.433594 C 110.863281 70.550781 110.921875 70.640625 111.007812 70.703125 C 111.09375 70.765625 111.203125 70.796875 111.332031 70.796875 C 111.46875 70.796875 111.578125 70.761719 111.660156 70.695312 C 111.738281 70.625 111.789062 70.535156 111.808594 70.421875 C 111.828125 70.3125 111.835938 70.101562 111.835938 69.796875 L 111.835938 67.640625 L 112.527344 67.640625 L 112.527344 69.761719 C 112.527344 70.1875 112.503906 70.5 112.453125 70.710938 C 112.40625 70.917969 112.28125 71.097656 112.082031 71.246094 C 111.882812 71.394531 111.609375 71.46875 111.257812 71.46875 C 110.929688 71.46875 110.671875 71.414062 110.484375 71.304688 C 110.296875 71.195312 110.164062 71.042969 110.085938 70.84375 C 110.003906 70.644531 109.964844 70.296875 109.964844 69.796875 Z M 109.964844 67.640625 "/>
<path fill-rule="nonzero" fill="rgb(62.353516%, 66.275024%, 73.33374%)" fill-opacity="1" d="M 114.308594 67.640625 L 115.136719 67.640625 L 115.136719 71.410156 L 114.308594 71.410156 Z M 114.308594 67.640625 "/>
<path fill-rule="nonzero" fill="rgb(62.353516%, 66.275024%, 73.33374%)" fill-opacity="1" d="M 117.75 68.253906 L 117.75 69.371094 L 118.003906 69.371094 C 118.230469 69.371094 118.378906 69.316406 118.441406 69.214844 C 118.507812 69.109375 118.542969 68.972656 118.542969 68.804688 C 118.542969 68.660156 118.515625 68.546875 118.464844 68.457031 C 118.414062 68.371094 118.355469 68.3125 118.289062 68.289062 C 118.222656 68.265625 118.128906 68.253906 118.003906 68.253906 Z M 116.921875 67.640625 L 118.003906 67.640625 C 118.335938 67.640625 118.589844 67.671875 118.769531 67.726562 C 118.953125 67.78125 119.105469 67.90625 119.230469 68.097656 C 119.351562 68.292969 119.414062 68.535156 119.414062 68.820312 C 119.414062 69.097656 119.363281 69.324219 119.265625 69.507812 C 119.164062 69.6875 119.027344 69.816406 118.851562 69.898438 C 118.675781 69.976562 118.40625 70.015625 118.042969 70.015625 L 117.75 70.015625 L 117.75 71.410156 L 116.921875 71.410156 Z M 116.921875 67.640625 "/>
<path fill-rule="nonzero" fill="rgb(62.353516%, 66.275024%, 73.33374%)" fill-opacity="1" d="M 120.878906 67.640625 L 122.097656 67.640625 L 122.628906 69.96875 L 123.226562 67.640625 L 124.40625 67.640625 L 124.40625 71.410156 L 123.632812 71.410156 L 123.632812 68.253906 L 122.859375 71.410156 L 122.257812 71.410156 L 121.554688 68.253906 L 121.554688 71.410156 L 120.878906 71.410156 Z M 120.878906 67.640625 "/>
<path fill-rule="nonzero" fill="rgb(62.353516%, 66.275024%, 73.33374%)" fill-opacity="1" d="M 126.1875 67.640625 L 128.480469 67.640625 L 128.480469 68.289062 L 127.015625 68.289062 L 127.015625 69.164062 L 128.15625 69.164062 L 128.15625 69.808594 L 127.015625 69.808594 L 127.015625 70.738281 L 128.480469 70.738281 L 128.480469 71.410156 L 126.1875 71.410156 Z M 126.1875 67.640625 "/>
<path fill-rule="nonzero" fill="rgb(62.353516%, 66.275024%, 73.33374%)" fill-opacity="1" d="M 129.925781 67.640625 L 130.84375 67.640625 L 131.8125 69.984375 L 131.8125 67.640625 L 132.457031 67.640625 L 132.457031 71.410156 L 131.714844 71.410156 L 130.566406 68.683594 L 130.566406 71.410156 L 129.925781 71.410156 Z M 129.925781 67.640625 "/>
<path fill-rule="nonzero" fill="rgb(62.353516%, 66.275024%, 73.33374%)" fill-opacity="1" d="M 133.78125 67.640625 L 136.128906 67.640625 L 136.128906 68.347656 L 135.359375 68.347656 L 135.359375 71.410156 L 134.53125 71.410156 L 134.53125 68.347656 L 133.78125 68.347656 Z M 133.78125 67.640625 "/>
</svg>
